<?xml version="1.0" encoding="UTF-8" standalone="no"?>
<svg
   xmlns:dc="http://purl.org/dc/elements/1.1/"
   xmlns:cc="http://creativecommons.org/ns#"
   xmlns:rdf="http://www.w3.org/1999/02/22-rdf-syntax-ns#"
   xmlns:svg="http://www.w3.org/2000/svg"
   xmlns="http://www.w3.org/2000/svg"
   xml:space="preserve"
   enable-background="new 0 0 36.9 36.9"
   viewBox="0 0 36.9 36.9"
   y="0px"
   x="0px"
   id="Layer_1"
   version="1.1"><metadata
     id="metadata9"><rdf:RDF><cc:Work
         rdf:about=""><dc:format>image/svg+xml</dc:format><dc:type
           rdf:resource="http://purl.org/dc/dcmitype/StillImage" /><dc:title></dc:title></cc:Work></rdf:RDF></metadata><defs
     id="defs7" /><path
     id="path4137"
     d="M 1.4292363,31.832708 C 1.5932025,29.336635 1.8257511,28.18789 2.2968314,27.547035 2.7280413,26.960422 4.316689,26.124074 7.110971,25.012624 c 7.111224,-2.828561 7.144508,-2.848929 7.142814,-4.371507 -8.06e-4,-0.724069 -0.394387,-2.090975 -0.874628,-3.037573 -0.480238,-0.946596 -0.873162,-2.009267 -0.873162,-2.361493 0,-0.352225 -0.230611,-0.640409 -0.512468,-0.640409 -0.281857,0 -0.675441,-0.304517 -0.874628,-0.676703 -0.523096,-0.977415 -0.452229,-3.159055 0.109617,-3.374657 0.339997,-0.13047 0.425797,-0.6595784 0.307161,-1.8942267 -0.219322,-2.2826531 0.06292,-3.2394853 1.407218,-4.7705637 1.425234,-1.6232533 2.874072,-2.2283351 5.335638,-2.2283351 2.461564,0 3.910402,0.6050818 5.335636,2.2283351 1.336919,1.5226653 1.626428,2.4891748 1.412505,4.7155317 -0.109124,1.1356309 -0.0065,1.8009557 0.325755,2.1112967 0.303572,0.283577 0.4454,0.997839 0.379029,1.90884 -0.08133,1.116276 -0.289599,1.536229 -0.893222,1.801052 -0.438227,0.192271 -0.789031,0.657509 -0.791378,1.049553 -0.0022,0.387312 -0.3959,1.389365 -0.874628,2.226782 -0.563747,0.986142 -0.870412,2.063436 -0.870412,3.057713 l 0,1.535135 2.361492,1.087826 c 1.298823,0.598304 3.409343,1.451331 4.690047,1.895617 5.348211,1.855332 5.872799,2.45654 6.159977,7.059656 l 0.181441,2.908351 -17.244773,0 -17.2447759,0 0.2240035,-3.410137 z"
     style="opacity:1;fill:#ffffff;fill-opacity:1" /></svg>