<?xml version="1.0" encoding="utf-8"?>
<!-- Generator: Adobe Illustrator 19.2.1, SVG Export Plug-In . SVG Version: 6.00 Build 0)  -->
<svg version="1.1" id="Layer_1" xmlns="http://www.w3.org/2000/svg" xmlns:xlink="http://www.w3.org/1999/xlink" x="0px" y="0px"
	 viewBox="0 0 50 50" style="enable-background:new 0 0 50 50;" xml:space="preserve">
<style type="text/css">
	.st0{fill:#1BB20B;}
	.st1{fill:#FFFFFF;}
	.st2{fill:#E0B80E;}
	.st3{fill:#EF4D4D;}
</style>
<g>
	<path class="st2" d="M25,47C12.9,47,3,37.1,3,25C3,12.9,12.9,3,25,3s22,9.9,22,22C47,37.1,37.1,47,25,47z"/>
	<g>
		<path class="st1" d="M25,4.5c11.3,0,20.5,9.2,20.5,20.5S36.3,45.5,25,45.5S4.5,36.3,4.5,25S13.7,4.5,25,4.5 M25,1.5
			C12,1.5,1.5,12,1.5,25S12,48.5,25,48.5S48.5,38,48.5,25S38,1.5,25,1.5L25,1.5z"/>
	</g>
</g>
<g>
	<path class="st1" d="M13.3,21.7h8.4v-8.4h6.6v8.4h8.4v6.6h-8.4v8.4h-6.6v-8.4h-8.4V21.7z"/>
</g>
</svg>
