<?xml version="1.0" encoding="UTF-8" standalone="no"?>
<!-- Generator: Adobe Illustrator 15.1.0, SVG Export Plug-In . SVG Version: 6.00 Build 0)  -->

<svg
   xmlns:dc="http://purl.org/dc/elements/1.1/"
   xmlns:cc="http://creativecommons.org/ns#"
   xmlns:rdf="http://www.w3.org/1999/02/22-rdf-syntax-ns#"
   xmlns:svg="http://www.w3.org/2000/svg"
   xmlns="http://www.w3.org/2000/svg"
   xmlns:sodipodi="http://sodipodi.sourceforge.net/DTD/sodipodi-0.dtd"
   xmlns:inkscape="http://www.inkscape.org/namespaces/inkscape"
   version="1.1"
   id="Layer_1"
   x="0px"
   y="0px"
   width="46.93px"
   height="37.787px"
   viewBox="0 0 46.93 37.787"
   enable-background="new 0 0 46.93 37.787"
   xml:space="preserve"
   inkscape:version="0.91 r13725"
   sodipodi:docname="cart.svg"><metadata
     id="metadata13"><rdf:RDF><cc:Work
         rdf:about=""><dc:format>image/svg+xml</dc:format><dc:type
           rdf:resource="http://purl.org/dc/dcmitype/StillImage" /><dc:title></dc:title></cc:Work></rdf:RDF></metadata><defs
     id="defs11" /><sodipodi:namedview
     pagecolor="#ffffff"
     bordercolor="#666666"
     borderopacity="1"
     objecttolerance="10"
     gridtolerance="10"
     guidetolerance="10"
     inkscape:pageopacity="0"
     inkscape:pageshadow="2"
     inkscape:window-width="1920"
     inkscape:window-height="1018"
     id="namedview9"
     showgrid="false"
     inkscape:zoom="6.1367994"
     inkscape:cx="23.465"
     inkscape:cy="18.893499"
     inkscape:window-x="-8"
     inkscape:window-y="208"
     inkscape:window-maximized="1"
     inkscape:current-layer="g3" /><g
     id="g3"><g
       id="g5"
       style="fill:#ffffff"><path
         fill="#736E69"
         d="M45.623,2.285c-0.91-0.217-1.82,0.36-2.033,1.291l-0.484,2.121H12.015l-0.897-4.324    C10.953,0.571,10.26,0,9.461,0H1.693C0.759,0,0,0.776,0,1.733c0,0.958,0.759,1.734,1.693,1.734h6.398l4.365,21.01    c0.168,0.799,0.857,1.373,1.656,1.373h26.529c0.787,0,1.467-0.558,1.647-1.345l4.595-20.139    C47.099,3.435,46.532,2.502,45.623,2.285z M21.397,22.381h-5.915l-1.229-5.909h7.145V22.381z M21.397,14.394h-7.575l-1.086-5.232    h8.662V14.394z M31.62,22.381h-8.194v-5.909h8.194V22.381z M31.62,14.394h-8.194V9.161h8.194V14.394z M39.298,22.381h-5.648    v-5.909h6.997L39.298,22.381z M41.122,14.394h-7.473V9.161h8.665L41.122,14.394z M19.245,30.048c-2.086,0-3.779,1.729-3.779,3.869    s1.693,3.87,3.779,3.87c2.086,0,3.775-1.73,3.775-3.87S21.332,30.048,19.245,30.048z M35.485,30.048    c-2.086,0-3.775,1.729-3.775,3.869s1.689,3.87,3.775,3.87c2.087,0,3.779-1.73,3.779-3.87S37.572,30.048,35.485,30.048z"
         id="path7"
         style="fill:#ffffff" /></g></g></svg>