<?xml version="1.0" encoding="utf-8"?>
<!-- Generator: Adobe Illustrator 19.2.1, SVG Export Plug-In . SVG Version: 6.00 Build 0)  -->
<svg version="1.1" id="Layer_1" xmlns="http://www.w3.org/2000/svg" xmlns:xlink="http://www.w3.org/1999/xlink" x="0px" y="0px"
	 viewBox="0 0 50 50" style="enable-background:new 0 0 50 50;" xml:space="preserve">
<style type="text/css">
	.st0{fill:#1BB20B;}
	.st1{fill:#FFFFFF;}
	.st2{fill:#E0B80E;}
	.st3{fill:#EF4D4D;}
</style>
<g>
	<path class="st3" d="M25.5,46.5c-12.1,0-22-9.9-22-22s9.9-22,22-22c12.1,0,22,9.9,22,22S37.6,46.5,25.5,46.5z"/>
	<path class="st1" d="M25.5,4C36.8,4,46,13.2,46,24.5S36.8,45,25.5,45S5,35.8,5,24.5S14.2,4,25.5,4 M25.5,1C12.5,1,2,11.5,2,24.5
		S12.5,48,25.5,48S49,37.5,49,24.5S38.5,1,25.5,1L25.5,1z"/>
</g>
<g>
	<path class="st1" d="M14.8,30.5l6-6l-6-6l4.7-4.7l6,6l6-6l4.7,4.7l-6,6l6,6l-4.7,4.7l-6-6l-6,6L14.8,30.5z"/>
</g>
</svg>
