<?xml version="1.0" encoding="utf-8"?>
<!-- Generator: Adobe Illustrator 19.0.1, SVG Export Plug-In . SVG Version: 6.00 Build 0)  -->
<svg version="1.1" id="Layer_1" xmlns="http://www.w3.org/2000/svg" xmlns:xlink="http://www.w3.org/1999/xlink" x="0px" y="0px"
	 viewBox="-266 0.9 426.7 559.1" style="enable-background:new -266 0.9 426.7 559.1;" xml:space="preserve">
<style type="text/css">
	.st0{fill:#2C2723;}
</style>
<path class="st0" d="M133.8,65.4L-104.5,2.2c0,0-33.7-10.2-44.2,26l-115.1,422.2c0,0-12.8,33.9,23.2,44l243,64.4
	c0,0,32.5,9,41.8-24.8l115.1-424.6C159.4,109.4,169.8,74.4,133.8,65.4z M-24.3,41.7l68.6,18.1l-4.7,16.9L-29,58.6L-24.3,41.7z
	 M-49.9,34.9c4.6,1.1,8.1,5.6,5.8,11.3c-1.2,4.5-5.8,7.9-10.5,5.6c-4.6-1.1-7-5.6-5.8-11.3C-59.2,36-54.5,32.7-49.9,34.9z
	 M-109.2,492.2c-9.3-2.3-15.1-12.4-12.8-21.5c2.3-9,12.8-14.7,22.1-12.4c9.3,2.3,15.1,12.4,12.8,21.5
	C-90.6,488.8-99.9,494.5-109.2,492.2z M29.2,456.1l-241.8-64.4l91.8-339.9l243,64.4L29.2,456.1z"/>
</svg>
